<svg width="20" height="20" viewBox="0 0 20 20" fill="none" xmlns="http://www.w3.org/2000/svg">
<path d="M17.4419 3.89453H15.2028V3.55809C15.2028 3.24984 14.9529 2.99997 14.6447 2.99997C14.3364 2.99997 14.0866 3.24988 14.0866 3.55809V3.8945H12.1064V3.55809C12.1064 3.24984 11.8565 2.99997 11.5483 2.99997C11.24 2.99997 10.9902 3.24988 10.9902 3.55809V3.8945H9.01V3.55809C9.01 3.24984 8.76009 2.99997 8.45188 2.99997C8.14363 2.99997 7.89375 3.24988 7.89375 3.55809V3.8945H5.91344V3.55809C5.91344 3.24984 5.66353 2.99997 5.35531 2.99997C5.04706 2.99997 4.79719 3.24988 4.79719 3.55809V3.8945H2.55813C2.24991 3.89453 2 4.14441 2 4.45266C2 4.60175 2 15.8061 2 15.9172C2 16.2254 2.24991 16.4753 2.55813 16.4753H17.4419C17.7501 16.4753 18 16.2254 18 15.9172C18 15.8062 18 4.60213 18 4.45266C18 4.14441 17.7501 3.89453 17.4419 3.89453ZM16.8837 15.359H3.11628V7.68391H16.8837V15.359ZM16.8837 6.56763H3.11628V5.01078H4.79722V5.22838C4.79722 5.53663 5.04713 5.7865 5.35534 5.7865C5.66359 5.7865 5.91347 5.53659 5.91347 5.22838V5.01078H7.89362V5.22838C7.89362 5.53663 8.14353 5.7865 8.45175 5.7865C8.76 5.7865 9.00987 5.53659 9.00987 5.22838V5.01078H10.99V5.22838C10.99 5.53663 11.2399 5.7865 11.5482 5.7865C11.8564 5.7865 12.1063 5.53659 12.1063 5.22838V5.01078H14.0864V5.22838C14.0864 5.53663 14.3363 5.7865 14.6446 5.7865C14.9528 5.7865 15.2027 5.53659 15.2027 5.22838V5.01078H16.8836V6.56763H16.8837Z" fill="#0E0E0E" stroke="#0E0E0E" stroke-width="0.3"/>
<path d="M5.35544 10.8755C5.81062 10.8755 6.17963 10.5065 6.17963 10.0513C6.17963 9.59611 5.81062 9.22711 5.35544 9.22711C4.90025 9.22711 4.53125 9.59611 4.53125 10.0513C4.53125 10.5065 4.90025 10.8755 5.35544 10.8755Z" fill="#0E0E0E"/>
<path d="M8.45151 10.8755C8.90669 10.8755 9.27569 10.5065 9.27569 10.0513C9.27569 9.59611 8.90669 9.22711 8.45151 9.22711C7.99632 9.22711 7.62732 9.59611 7.62732 10.0513C7.62732 10.5065 7.99632 10.8755 8.45151 10.8755Z" fill="#0E0E0E"/>
<path d="M11.5484 10.8755C12.0036 10.8755 12.3726 10.5065 12.3726 10.0513C12.3726 9.59611 12.0036 9.22711 11.5484 9.22711C11.0932 9.22711 10.7242 9.59611 10.7242 10.0513C10.7242 10.5065 11.0932 10.8755 11.5484 10.8755Z" fill="#0E0E0E"/>
<path d="M14.6445 10.8755C15.0997 10.8755 15.4687 10.5065 15.4687 10.0513C15.4687 9.59611 15.0997 9.22711 14.6445 9.22711C14.1893 9.22711 13.8203 9.59611 13.8203 10.0513C13.8203 10.5065 14.1893 10.8755 14.6445 10.8755Z" fill="#0E0E0E"/>
<path d="M5.35544 13.8165C5.81062 13.8165 6.17963 13.4475 6.17963 12.9923C6.17963 12.5371 5.81062 12.1681 5.35544 12.1681C4.90025 12.1681 4.53125 12.5371 4.53125 12.9923C4.53125 13.4475 4.90025 13.8165 5.35544 13.8165Z" fill="#0E0E0E"/>
<path d="M8.45151 13.8165C8.90669 13.8165 9.27569 13.4475 9.27569 12.9923C9.27569 12.5371 8.90669 12.1681 8.45151 12.1681C7.99632 12.1681 7.62732 12.5371 7.62732 12.9923C7.62732 13.4475 7.99632 13.8165 8.45151 13.8165Z" fill="#0E0E0E"/>
<path d="M11.5484 13.8165C12.0036 13.8165 12.3726 13.4475 12.3726 12.9923C12.3726 12.5371 12.0036 12.1681 11.5484 12.1681C11.0932 12.1681 10.7242 12.5371 10.7242 12.9923C10.7242 13.4475 11.0932 13.8165 11.5484 13.8165Z" fill="#0E0E0E"/>
<path d="M14.6445 13.8165C15.0997 13.8165 15.4687 13.4475 15.4687 12.9923C15.4687 12.5371 15.0997 12.1681 14.6445 12.1681C14.1893 12.1681 13.8203 12.5371 13.8203 12.9923C13.8203 13.4475 14.1893 13.8165 14.6445 13.8165Z" fill="#0E0E0E"/>
</svg>
