<svg width="20" height="20" viewBox="0 0 20 20" fill="none" xmlns="http://www.w3.org/2000/svg">
<path d="M4.12109 3.75C3.28613 3.75 2.51465 4.16748 2.05078 4.86328L0.3125 7.46094C0.107422 7.76856 0 8.125 0 8.49609V12.6367C0 13.208 0.383301 13.7085 0.9375 13.8477L2.55859 14.2578C2.79297 15.3931 3.79883 16.25 5 16.25C6.15723 16.25 7.12402 15.4492 7.40234 14.375H13.2227C13.501 15.4492 14.4678 16.25 15.625 16.25C16.7822 16.25 17.749 15.4492 18.0273 14.375H18.75C19.4336 14.375 20 13.8086 20 13.125V10.8398C20 9.69482 19.2163 8.69385 18.1055 8.41797L14.7266 7.55859L12.2852 4.64844C11.8091 4.07959 11.1133 3.75 10.3711 3.75H4.12109ZM4.12109 5H6.875V7.5H1.79688L3.08594 5.56641V5.54688C3.31787 5.19775 3.70117 5 4.12109 5ZM8.125 5H10.3711C10.7422 5 11.0913 5.16357 11.3281 5.44922L13.0469 7.5H8.125V5ZM1.25 8.75H14.2969L17.8125 9.62891C18.3716 9.76807 18.75 10.2637 18.75 10.8398V13.125H18.0273C17.749 12.0508 16.7822 11.25 15.625 11.25C14.4678 11.25 13.501 12.0508 13.2227 13.125H7.40234C7.12402 12.0508 6.15723 11.25 5 11.25C3.8916 11.25 2.96143 11.9824 2.63672 12.9883L1.25 12.6367V8.75ZM5 12.5C5.69824 12.5 6.25 13.0518 6.25 13.75C6.25 14.4482 5.69824 15 5 15C4.30176 15 3.75 14.4482 3.75 13.75C3.75 13.0518 4.30176 12.5 5 12.5ZM15.625 12.5C16.3232 12.5 16.875 13.0518 16.875 13.75C16.875 14.4482 16.3232 15 15.625 15C14.9268 15 14.375 14.4482 14.375 13.75C14.375 13.0518 14.9268 12.5 15.625 12.5Z" fill="#0E0E0E"/>
</svg>
