<svg width="20" height="20" viewBox="0 0 20 20" fill="none" xmlns="http://www.w3.org/2000/svg">
<path fill-rule="evenodd" clip-rule="evenodd" d="M2.5 15C2.5 12.8288 3.88401 10.9807 5.81797 10.29C6.3436 10.1022 6.90986 10 7.5 10C8.09014 10 8.65642 10.1022 9.182 10.29C9.46758 10.3919 9.74108 10.5192 10 10.6689C10.2589 10.5192 10.5324 10.3919 10.818 10.29C11.3436 10.1022 11.9098 10 12.5 10C13.0902 10 13.6564 10.1022 14.182 10.29C16.116 10.9807 17.5 12.8288 17.5 15V17.5H13.125V16.25H16.25V15C16.25 12.9289 14.5711 11.25 12.5 11.25C12.0024 11.25 11.5275 11.3469 11.093 11.5229C11.964 12.4228 12.5 13.6488 12.5 15V17.5H2.5V15ZM7.5 9.375C6.92587 9.375 6.3879 9.22017 5.92557 8.95C4.99808 8.408 4.375 7.40176 4.375 6.25C4.375 4.52411 5.77411 3.125 7.5 3.125C8.52225 3.125 9.42983 3.61584 10 4.37469C10.5702 3.61584 11.4778 3.125 12.5 3.125C14.2259 3.125 15.625 4.52411 15.625 6.25C15.625 7.40176 15.0019 8.408 14.0744 8.95C13.6121 9.22017 13.0742 9.375 12.5 9.375C11.9258 9.375 11.3879 9.22017 10.9256 8.95C10.5647 8.73908 10.2499 8.45792 10 8.1253C9.75008 8.458 9.43533 8.73908 9.07442 8.95C8.61208 9.22017 8.07413 9.375 7.5 9.375ZM11.25 15V16.25H3.75V15C3.75 12.9289 5.42893 11.25 7.5 11.25C9.57108 11.25 11.25 12.9289 11.25 15ZM9.375 6.25C9.375 7.28553 8.5355 8.125 7.5 8.125C6.46447 8.125 5.625 7.28553 5.625 6.25C5.625 5.21447 6.46447 4.375 7.5 4.375C8.5355 4.375 9.375 5.21447 9.375 6.25ZM12.5 4.375C11.4645 4.375 10.625 5.21447 10.625 6.25C10.625 7.28553 11.4645 8.125 12.5 8.125C13.5355 8.125 14.375 7.28553 14.375 6.25C14.375 5.21447 13.5355 4.375 12.5 4.375Z" fill="#0E0E0E"/>
</svg>
