<svg width="20" height="20" viewBox="0 0 20 20" fill="none" xmlns="http://www.w3.org/2000/svg">
<path d="M9.5 4V3.5H10.5V4V15C10.5 15.544 10.6773 16.0698 11 16.5H9C9.12566 16.3324 9.23006 16.1494 9.31042 15.955C9.43571 15.6518 9.50013 15.327 9.5 14.999C9.5 14.9989 9.5 14.9989 9.5 14.9988V4ZM3.5 3.5H3.55051C3.54201 3.50833 3.53355 3.5167 3.52513 3.52513C3.5167 3.53355 3.50833 3.54201 3.5 3.55051V3.5ZM16.4749 3.52513C16.4665 3.5167 16.458 3.50833 16.4495 3.5H16.5V3.55051C16.4917 3.54201 16.4833 3.53355 16.4749 3.52513Z" stroke="#0E0E0E" stroke-width="3"/>
</svg>
